<svg xmlns="http://www.w3.org/2000/svg" width="32" height="32" viewBox="0 0 32 32">
  <g id="Layer_3" data-name="Layer 3" transform="translate(-411.301 -411.3)">
    <circle id="Ellipse_1695" data-name="Ellipse 1695" cx="16" cy="16" r="16" transform="translate(411.3 411.3)" fill="#ffc500"/>
    <path id="Path_5440" data-name="Path 5440" d="M1121.336,794.812a.779.779,0,0,1-.7-.425c-.391-.764-.892-1.223-1.338-1.223s-.946.459-1.337,1.223a.782.782,0,0,1-1.392-.712,2.833,2.833,0,0,1,5.459,0,.779.779,0,0,1-.339,1.051A.766.766,0,0,1,1121.336,794.812Z" transform="translate(-686.812 -370.385)" fill="#00305f"/>
    <path id="Path_5441" data-name="Path 5441" d="M718.675,794.812a.766.766,0,0,1-.357-.086.779.779,0,0,1-.339-1.051,2.833,2.833,0,0,1,5.459,0,.782.782,0,0,1-1.392.712c-.391-.764-.892-1.223-1.337-1.223s-.946.459-1.337,1.223A.78.78,0,0,1,718.675,794.812Z" transform="translate(-298.6 -370.385)" fill="#00305f"/>
    <path id="Path_5442" data-name="Path 5442" d="M827.746,1056.6H835.6a1.246,1.246,0,0,1,1.246,1.246h0a5.175,5.175,0,0,1-5.175,5.178h0a5.175,5.175,0,0,1-5.175-5.175h0a1.246,1.246,0,0,1,1.246-1.246Z" transform="translate(-404.375 -628.476)" fill="#00305f"/>
    <path id="Path_5443" data-name="Path 5443" d="M929.7,1182.378a5.019,5.019,0,0,0,4.969,0,2.486,2.486,0,1,0-4.969,0Z" transform="translate(-504.885 -748.464)" fill="#ff4f4f"/>
  </g>
</svg>
